<svg viewBox="0 0 30 30" fill="none" xmlns="http://www.w3.org/2000/svg">
<g opacity="0.8">
<path fill-rule="evenodd" clip-rule="evenodd" d="M15.8625 5.1375C18.3685 2.63151 22.4147 2.61472 24.9 5.1C27.3853 7.58528 27.3685 11.6315 24.8625 14.1375L21.1277 17.8723L19.4913 16.2359L23.2261 12.5011C24.8209 10.9064 24.8315 8.33154 23.25 6.75C21.6685 5.16846 19.0936 5.17914 17.4989 6.77386L14.2565 10.0162L12.6202 8.37982L15.8625 5.1375ZM12.5011 23.2261L14.4794 21.2479L16.1158 22.8842L14.1375 24.8625C11.6315 27.3685 7.58527 27.3853 5.09999 24.9C2.61471 22.4147 2.6315 18.3685 5.13749 15.8625L7.02258 13.9774L8.65895 15.6138L6.77386 17.4989C5.17913 19.0936 5.16845 21.6685 6.74999 23.25C8.33153 24.8315 10.9064 24.8209 12.5011 23.2261Z" fill="white"/>
<path fill-rule="evenodd" clip-rule="evenodd" d="M19.7454 12.4918L10.7454 21.4918L8.94545 19.6918L17.9454 10.6918L19.7454 12.4918Z" fill="white"/>
</g>
</svg>
