<svg viewBox="0 0 47 42" fill="none" xmlns="http://www.w3.org/2000/svg">
<path d="M28.2007 32.2099C28.3073 32.0521 28.4447 31.9165 28.6049 31.8111C28.7651 31.7056 28.945 31.6322 29.1342 31.5953C29.3234 31.5583 29.5182 31.5584 29.7073 31.5956C29.8965 31.6328 30.0763 31.7064 30.2363 31.812L31.4583 32.6106C31.7827 32.822 32.0083 33.1512 32.0854 33.5259C32.1625 33.9005 32.0849 34.2898 31.8695 34.6083L27.6162 40.858C27.4003 41.1759 27.0646 41.3967 26.6829 41.4718C26.3012 41.547 25.9047 41.4703 25.5805 41.2587L24.3586 40.4602C24.1978 40.3553 24.0596 40.2202 23.952 40.0629C23.8445 39.9055 23.7696 39.7288 23.7317 39.543C23.6937 39.3572 23.6935 39.1658 23.731 38.9799C23.7685 38.794 23.8431 38.6172 23.9503 38.4596L28.2007 32.2099ZM19.3885 29.3271C19.4951 29.1694 19.6325 29.0338 19.7927 28.9284C19.9529 28.8229 20.1327 28.7495 20.3219 28.7126C20.5111 28.6756 20.7059 28.6757 20.8951 28.7129C21.0842 28.7501 21.264 28.8237 21.4241 28.9293L22.6461 29.7278C22.9705 29.9393 23.1961 30.2685 23.2732 30.6431C23.3503 31.0178 23.2727 31.4071 23.0573 31.7256L18.8039 37.9753C18.588 38.2932 18.2523 38.514 17.8706 38.5891C17.4889 38.6643 17.0924 38.5876 16.7683 38.376L15.5463 37.5775C15.3855 37.4725 15.2474 37.3375 15.1398 37.1801C15.0322 37.0228 14.9573 36.8461 14.9194 36.6603C14.8815 36.4745 14.8813 36.2831 14.9188 36.0972C14.9563 35.9113 15.0308 35.7345 15.138 35.5769L19.3885 29.3271ZM23.5772 0.5C25.7832 0.5 27.9833 1.07366 29.922 2.23539C31.7138 3.30843 33.1977 4.81138 34.2342 6.60271L34.243 6.60847H34.2459L34.8598 6.47299C35.4737 6.34903 36.0935 6.27408 36.7192 6.27408C39.824 6.27408 42.9318 7.64913 45.0086 10.3992C46.3023 12.1265 47 14.2141 47 16.3578C47 18.5015 46.3023 20.5891 45.0086 22.3164C44.056 23.5967 42.8086 24.6381 41.368 25.3554C39.9275 26.0728 38.3346 26.446 36.7192 26.4444H8.85492C5.84702 26.4444 2.84205 24.9397 1.10604 21.933C0.380976 20.672 0 19.2485 0 17.8006C0 16.3527 0.380976 14.9293 1.10604 13.6682C2.84205 10.6587 5.84702 9.15391 8.85492 9.15391C10.1327 9.15391 11.4017 9.44218 12.5766 9.99855C12.7804 10.0955 12.9587 10.2372 13.0977 10.4126C13.2367 10.5881 13.3326 10.7926 13.3781 11.0104C13.4235 11.2281 13.4173 11.4532 13.3598 11.6681C13.3023 11.8831 13.1951 12.0822 13.0466 12.2499L12.0479 13.3627C11.8527 13.581 11.5948 13.7363 11.3081 13.8083C11.0214 13.8804 10.7192 13.8657 10.4411 13.7663C9.94177 13.576 9.40422 13.478 8.85492 13.478C8.40844 13.478 7.9502 13.5414 7.49197 13.6769C6.71378 13.9293 6.02242 14.3891 5.49511 15.0049C4.96779 15.6206 4.62528 16.3681 4.50584 17.1639C4.38639 17.9596 4.4947 18.7723 4.81868 19.5111C5.14266 20.25 5.66955 20.8859 6.3405 21.3478C7.09835 21.8753 8.02364 22.1232 8.9548 22.1232H36.7045C39.3541 22.1232 41.7304 20.4023 42.3884 17.8828C42.6252 17.0272 42.658 16.1295 42.4844 15.2594C42.3107 14.3894 41.9352 13.5702 41.387 12.8655C40.8388 12.1608 40.1326 11.5894 39.3231 11.1958C38.5136 10.8021 37.6226 10.5966 36.7192 10.5953C36.399 10.5953 36.0906 10.6385 35.7851 10.6875C34.3751 10.9124 33.1444 11.6273 32.2602 12.6535C32.2224 12.6996 32.1745 12.7367 32.1201 12.7621C32.0657 12.7876 32.0062 12.8007 31.9459 12.8005C31.8419 12.8029 31.7411 12.7654 31.6648 12.696C31.5886 12.6265 31.5429 12.5306 31.5376 12.4287C31.4548 11.0599 31.0203 9.73401 30.2745 8.57448C29.6973 7.61411 28.9158 6.78719 27.9833 6.15012C26.6985 5.32144 25.191 4.88783 23.6536 4.90479C22.7812 4.90479 21.9058 5.03451 21.0716 5.28819C19.2739 5.83014 18.049 6.75549 17.1854 7.86245C16.9614 8.14636 16.637 8.33739 16.2763 8.39772C15.9157 8.45804 15.5451 8.38327 15.2379 8.1882C14.8643 7.9484 14.4769 7.72991 14.0776 7.53382C13.8877 7.44019 13.7208 7.30696 13.5888 7.14346C13.4567 6.97996 13.3627 6.79014 13.3132 6.58725C13.2636 6.38436 13.2599 6.17331 13.3021 5.96885C13.3444 5.76438 13.4316 5.57144 13.5577 5.4035C14.6279 3.99223 16.0019 2.82982 17.582 1.99901C19.4215 1.01579 21.4826 0.500434 23.5772 0.5Z" fill="#157BFB"/>
</svg>
